<svg xmlns="http://www.w3.org/2000/svg" xmlns:xlink="http://www.w3.org/1999/xlink" width="50" zoomAndPan="magnify" viewBox="0 0 37.5 37.499999" height="50" preserveAspectRatio="xMidYMid meet" version="1.0"><defs><clipPath id="419a17bb48"><path d="M 0 0 L 37.007812 0 L 37.007812 37.007812 L 0 37.007812 Z M 0 0 " clip-rule="nonzero"/></clipPath></defs><g clip-path="url(#419a17bb48)"><path fill="#1a202c" d="M 14.0625 0 L 23.4375 0 C 24.359375 0 25.273438 0.0898438 26.179688 0.269531 C 27.085938 0.449219 27.964844 0.71875 28.820312 1.070312 C 29.671875 1.421875 30.484375 1.855469 31.25 2.371094 C 32.019531 2.882812 32.726562 3.464844 33.382812 4.117188 C 34.035156 4.773438 34.617188 5.480469 35.128906 6.25 C 35.644531 7.015625 36.078125 7.828125 36.429688 8.679688 C 36.78125 9.535156 37.050781 10.414062 37.230469 11.320312 C 37.410156 12.226562 37.5 13.140625 37.5 14.0625 L 37.5 23.4375 C 37.5 24.359375 37.410156 25.273438 37.230469 26.179688 C 37.050781 27.085938 36.78125 27.964844 36.429688 28.820312 C 36.078125 29.671875 35.644531 30.484375 35.128906 31.25 C 34.617188 32.019531 34.035156 32.726562 33.382812 33.382812 C 32.726562 34.035156 32.019531 34.617188 31.25 35.128906 C 30.484375 35.644531 29.671875 36.078125 28.820312 36.429688 C 27.964844 36.78125 27.085938 37.050781 26.179688 37.230469 C 25.273438 37.410156 24.359375 37.5 23.4375 37.5 L 14.0625 37.5 C 13.140625 37.5 12.226562 37.410156 11.320312 37.230469 C 10.414062 37.050781 9.535156 36.78125 8.679688 36.429688 C 7.828125 36.078125 7.015625 35.644531 6.25 35.128906 C 5.480469 34.617188 4.773438 34.035156 4.117188 33.382812 C 3.464844 32.726562 2.882812 32.019531 2.371094 31.25 C 1.855469 30.484375 1.421875 29.671875 1.070312 28.820312 C 0.71875 27.964844 0.449219 27.085938 0.269531 26.179688 C 0.0898438 25.273438 0 24.359375 0 23.4375 L 0 14.0625 C 0 13.140625 0.0898438 12.226562 0.269531 11.320312 C 0.449219 10.414062 0.71875 9.535156 1.070312 8.679688 C 1.421875 7.828125 1.855469 7.015625 2.371094 6.25 C 2.882812 5.480469 3.464844 4.773438 4.117188 4.117188 C 4.773438 3.464844 5.480469 2.882812 6.25 2.371094 C 7.015625 1.855469 7.828125 1.421875 8.679688 1.070312 C 9.535156 0.71875 10.414062 0.449219 11.320312 0.269531 C 12.226562 0.0898438 13.140625 0 14.0625 0 Z M 14.0625 0 " fill-opacity="1" fill-rule="nonzero"/></g><path fill="#ffffff" d="M 9.75 17.652344 L 10.875 18.3125 L 10.875 23.582031 L 12 24.238281 L 13.125 24.898438 L 14.246094 25.558594 L 15.371094 26.21875 L 16.496094 26.875 L 18.746094 28.195312 L 20.996094 26.875 L 22.121094 26.21875 L 24.371094 24.898438 L 25.492188 24.238281 L 26.617188 23.582031 L 26.617188 18.3125 L 27.742188 17.652344 L 27.742188 20.039062 C 27.648438 20.09375 27.585938 20.203125 27.585938 20.316406 C 27.585938 20.429688 27.640625 20.523438 27.71875 20.582031 L 27.683594 20.695312 L 27.457031 21.402344 L 28.359375 21.402344 L 28.132812 20.695312 L 28.097656 20.582031 C 28.179688 20.523438 28.230469 20.441406 28.230469 20.316406 C 28.230469 20.191406 28.136719 20.054688 28.011719 20.007812 L 28.011719 17.496094 L 19.023438 12.226562 L 19.292969 12.066406 L 28.292969 17.335938 L 28.875 16.996094 L 30 16.335938 L 27.75 15.015625 L 26.625 14.359375 L 25.5 13.699219 L 24.375 13.042969 L 23.25 12.382812 L 22.125 11.726562 L 19.875 10.40625 L 18.75 9.75 L 17.625 10.410156 L 16.5 11.066406 L 15.375 11.726562 L 14.25 12.382812 L 13.125 13.042969 L 12 13.699219 L 8.625 15.679688 L 7.5 16.335938 L 8.625 16.996094 Z M 17.625 15.679688 L 18.75 15.019531 L 19.875 15.679688 L 21 16.335938 L 18.75 17.65625 L 17.625 18.3125 L 17.625 19.632812 L 18.75 20.289062 L 19.875 19.632812 L 23.25 17.652344 L 24.375 16.996094 L 25.144531 16.539062 L 25.496094 16.335938 L 24.542969 15.777344 L 24.375 15.679688 L 21 13.699219 L 19.875 13.042969 L 18.75 12.382812 L 17.625 13.042969 L 16.5 13.699219 L 13.125 15.679688 L 12.003906 16.335938 L 13.125 16.996094 L 13.125 22.265625 L 14.25 22.921875 L 17.625 24.902344 L 18.75 25.558594 L 19.875 24.902344 L 23.25 22.921875 L 24.375 22.265625 L 24.375 19.628906 L 22.125 20.949219 L 21 21.605469 L 18.75 22.925781 L 15.375 20.945312 L 15.375 16.996094 L 16.5 16.335938 Z M 17.625 15.679688 " fill-opacity="1" fill-rule="evenodd"/></svg>